# 3ds Max Wavefront OBJ Exporter v0.94b - (c)2007 guruware
# File Created: 02.08.2010 11:30:08

mtllib amanita_a.mtl

#
# object amanita_A
#

v  0.0759 -0.1368 -0.0004
v  0.0516 -0.1368 -0.0589
v  -0.0070 -0.1368 -0.0832
v  -0.0655 -0.1368 -0.0589
v  -0.0898 -0.1368 -0.0004
v  -0.0655 -0.1368 0.0582
v  -0.0070 -0.1368 0.0824
v  0.0516 -0.1368 0.0582
v  0.0865 0.1803 -0.0004
v  0.0613 0.1892 -0.0614
v  0.0003 0.1894 -0.0867
v  -0.0608 0.1812 -0.0614
v  -0.0860 0.1894 -0.0004
v  -0.0608 0.1927 0.0606
v  0.0003 0.2011 0.0859
v  0.0613 0.1909 0.0606
v  0.0684 0.6753 0.0026
v  0.0490 0.6765 -0.0443
v  0.0031 0.6834 -0.0625
v  -0.0383 0.6865 -0.0367
v  -0.0632 0.6795 0.0039
v  -0.0449 0.6842 0.0495
v  0.0020 0.6868 0.0690
v  0.0490 0.6772 0.0495
v  0.5742 0.8114 0.0008
v  0.3760 0.7881 -0.3794
v  -0.0028 0.8535 -0.5756
v  -0.4062 0.8645 -0.3889
v  -0.5759 0.8618 0.0207
v  -0.4064 0.8299 0.4077
v  0.0028 0.8257 0.5731
v  0.4120 0.8489 0.4040
v  0.0031 0.8239 0.0431
v  0.0862 0.0921 -0.0873
v  0.1222 0.0908 -0.0004
v  -0.0006 0.0921 -0.1233
v  -0.0875 0.0909 -0.0873
v  -0.1235 0.0921 -0.0004
v  -0.0875 0.0926 0.0865
v  -0.0006 0.0939 0.1225
v  0.0862 0.0924 0.0865
v  0.0582 0.5670 0.0015
v  0.0386 0.5665 -0.0459
v  -0.0088 0.5651 -0.0655
v  -0.0561 0.5638 -0.0459
v  -0.0758 0.5633 0.0015
v  -0.0561 0.5638 0.0489
v  -0.0088 0.5651 0.0685
v  0.0386 0.5665 0.0489
v  0.1384 0.5672 0.0017
v  0.0953 0.5677 -0.1024
v  -0.0087 0.5734 -0.1455
v  -0.1128 0.5629 -0.1024
v  -0.1559 0.5623 0.0017
v  -0.1128 0.5435 0.1058
v  -0.0087 0.5535 0.1489
v  0.0953 0.5649 0.1058
v  0.4551 0.8697 0.0094
v  0.2997 0.8506 -0.2933
v  -0.0018 0.9022 -0.4485
v  -0.3214 0.9122 -0.2991
v  -0.4548 0.9098 0.0256
v  -0.3203 0.8842 0.3308
v  0.0024 0.8810 0.4606
v  0.3251 0.8999 0.3275
v  0.2977 0.8470 -0.0974
v  0.1178 0.8627 -0.2794
v  -0.1245 0.8901 -0.2836
v  -0.3047 0.8911 -0.0929
v  -0.3040 0.8796 0.1532
v  -0.1240 0.8656 0.3237
v  0.1298 0.8763 0.3236
v  0.3099 0.8735 0.1444
v  0.4776 0.8298 -0.1872
v  0.1871 0.8555 -0.4802
v  -0.2033 0.8990 -0.4878
v  -0.4947 0.9004 -0.1809
v  -0.4943 0.8821 0.2172
v  -0.2032 0.8597 0.4936
v  0.2080 0.8764 0.4935
v  0.4988 0.8718 0.2032
v  0.1235 0.1460 -0.0004
v  0.0632 0.6754 -0.0227
v  0.0274 0.6797 -0.0585
v  -0.0189 0.6861 -0.0535
v  -0.0547 0.6828 -0.0177
v  -0.0591 0.6809 0.0279
v  -0.0233 0.6868 0.0637
v  0.0274 0.6823 0.0637
v  0.0632 0.6754 0.0279
v  0.0577 0.3642 -0.0065
v  0.0371 0.3640 -0.0562
v  -0.0126 0.3633 -0.0768
v  -0.0622 0.3626 -0.0562
v  -0.0828 0.3624 -0.0065
v  -0.0622 0.3626 0.0432
v  -0.0126 0.3633 0.0638
v  0.0371 0.3640 0.0432
v  0.4159 0.8535 -0.1571
v  0.1634 0.8757 -0.4124
v  -0.1765 0.9139 -0.4185
v  -0.4295 0.9153 -0.1511
v  -0.4287 0.8992 0.1946
v  -0.1759 0.8797 0.4342
v  0.1807 0.8945 0.4340
v  0.4335 0.8905 0.1823
v  0.2887 0.8549 0.0248
v  0.1915 0.8436 -0.1674
v  0.0001 0.8748 -0.2642
v  -0.2013 0.8820 -0.1704
v  -0.2855 0.8801 0.0346
v  -0.2005 0.8643 0.2276
v  0.0031 0.8624 0.3092
v  0.2068 0.8734 0.2252
v  0.0874 0.1517 -0.0875
v  0.0003 0.1517 -0.1236
v  -0.0869 0.1466 -0.0875
v  -0.1230 0.1517 -0.0004
v  -0.0869 0.1538 0.0867
v  0.0003 0.1591 0.1228
v  0.0874 0.1527 0.0867
v  0.0798 0.6240 0.0023
v  0.0554 0.6248 -0.0566
v  -0.0029 0.6303 -0.0803
v  -0.0589 0.6285 -0.0526
v  -0.0862 0.6246 0.0030
v  -0.0623 0.6209 0.0612
v  -0.0035 0.6255 0.0856
v  0.0554 0.6242 0.0612
v  0.5361 0.8494 0.0029
v  0.3518 0.8271 -0.3529
v  -0.0026 0.8883 -0.5362
v  -0.3793 0.8992 -0.3607
v  -0.5371 0.8966 0.0218
v  -0.3787 0.8665 0.3822
v  0.0024 0.8627 0.5359
v  0.3836 0.8848 0.3786
v  0.5110 0.7908 -0.2024
v  0.1999 0.8185 -0.5155
v  -0.2176 0.8646 -0.5243
v  -0.5301 0.8657 -0.1965
v  -0.5302 0.8464 0.2304
v  -0.2180 0.8226 0.5275
v  0.2237 0.8401 0.5276
v  0.5350 0.8350 0.2157
v  0.4170 0.7354 -0.1648
v  0.3074 0.7336 -0.3092
v  0.4679 0.7516 0.0011
v  0.1637 0.7583 -0.4196
v  -0.0015 0.7867 -0.4677
v  -0.1757 0.7961 -0.4252
v  -0.3286 0.7961 -0.3147
v  -0.4300 0.7961 -0.1588
v  -0.4682 0.7922 0.0171
v  -0.4313 0.7805 0.1878
v  -0.3305 0.7683 0.3324
v  -0.1771 0.7633 0.4300
v  0.0026 0.7657 0.4671
v  0.1824 0.7759 0.4301
v  0.3357 0.7815 0.3295
v  0.4358 0.7701 0.1762
# 161 vertices

vn 0.9799 -0.1993 -0.0003
vn 0.6906 -0.1909 -0.6976
vn 0.7034 -0.1018 -0.7034
vn 0.9940 -0.1096 0.0002
vn -0.0067 -0.1726 -0.9850
vn 0.0016 -0.0873 -0.9962
vn -0.7023 -0.1542 -0.6950
vn -0.7046 -0.0739 -0.7057
vn -0.9893 -0.1458 0.0001
vn -0.9978 -0.0670 0.0004
vn -0.7020 -0.1530 0.6955
vn -0.7042 -0.0733 0.7062
vn -0.0072 -0.1714 0.9852
vn 0.0009 -0.0861 0.9963
vn 0.6903 -0.1912 0.6978
vn 0.7030 -0.1014 0.7040
vn 0.0000 -1.0000 -0.0000
vn 0.8528 0.5220 0.0135
vn 0.6481 0.4641 -0.6038
vn 0.6952 0.0734 -0.7151
vn 0.9968 0.0797 -0.0106
vn -0.0186 0.4269 -0.9041
vn -0.0120 0.0557 -0.9984
vn -0.6142 0.4638 -0.6384
vn -0.7081 0.0360 -0.7052
vn -0.9061 0.4223 -0.0249
vn -0.9996 0.0267 -0.0091
vn -0.6549 0.4459 0.6102
vn -0.7175 0.0336 0.6958
vn 0.0260 0.4294 0.9027
vn -0.0121 0.0535 0.9985
vn 0.6684 0.4727 0.5743
vn 0.7036 0.0729 0.7068
vn 1.0000 -0.0029 0.0095
vn 0.7170 0.0304 -0.6964
vn 0.0101 0.0558 -0.9984
vn -0.7060 0.0578 -0.7059
vn -0.9993 0.0347 0.0100
vn -0.6965 0.0007 0.7175
vn 0.0119 -0.0238 0.9996
vn 0.7082 -0.0251 0.7056
vn 0.1749 -0.9845 0.0126
vn 0.1307 -0.9888 -0.0721
vn 0.3196 -0.9407 -0.1133
vn 0.3650 -0.9285 0.0684
vn 0.0489 -0.9851 -0.1650
vn 0.1958 -0.9408 -0.2768
vn 0.3023 -0.8732 -0.3823
vn 0.4491 -0.8772 -0.1697
vn 0.4902 -0.8690 0.0679
vn -0.0519 -0.9720 -0.2291
vn 0.0426 -0.9229 -0.3827
vn -0.1456 -0.9631 -0.2264
vn -0.0883 -0.9069 -0.4119
vn 0.0972 -0.8592 -0.5023
vn -0.0851 -0.8473 -0.5242
vn -0.1876 -0.9620 -0.1983
vn -0.1995 -0.9061 -0.3731
vn -0.1802 -0.9557 -0.2326
vn -0.3043 -0.9076 -0.2893
vn -0.3916 -0.8418 -0.3714
vn -0.2440 -0.8421 -0.4809
vn -0.2109 -0.9405 -0.2663
vn -0.3889 -0.9048 -0.1732
vn -0.2541 -0.9618 -0.1015
vn -0.4254 -0.9041 -0.0415
vn -0.5042 -0.8368 -0.2135
vn -0.5431 -0.8388 -0.0366
vn -0.1714 -0.9762 0.1331
vn -0.3922 -0.9141 0.1025
vn -0.0639 -0.9783 0.1973
vn -0.2896 -0.9268 0.2393
vn -0.3809 -0.8653 0.3259
vn -0.5041 -0.8508 0.1483
vn -0.0259 -0.9802 0.1965
vn -0.1407 -0.9327 0.3320
vn -0.0502 -0.9717 0.2309
vn 0.0316 -0.9306 0.3646
vn -0.1920 -0.8714 0.4514
vn 0.0336 -0.8687 0.4942
vn -0.0318 -0.9539 0.2984
vn 0.1855 -0.9198 0.3459
vn 0.0895 -0.9594 0.2676
vn 0.2819 -0.9107 0.3018
vn 0.2396 -0.8532 0.4633
vn 0.3713 -0.8453 0.3842
vn 0.1796 -0.9752 0.1290
vn 0.3384 -0.9154 0.2180
vn 0.4528 -0.8521 0.2624
vn -0.0751 0.9969 -0.0235
vn -0.1058 0.9891 -0.1026
vn 0.0905 0.9890 -0.1166
vn 0.1265 0.9847 -0.1200
vn 0.0032 0.9968 0.0798
vn 0.1384 0.9887 -0.0570
vn 0.0349 0.9994 -0.0071
vn 0.0935 0.9864 0.1354
vn 0.2019 0.9782 -0.0481
vn 0.1095 0.9821 0.1531
vn 0.1082 0.9937 -0.0287
vn 0.0998 0.9844 0.1451
vn 0.0131 0.9986 -0.0508
vn 0.1362 0.9832 0.1218
vn -0.0069 1.0000 -0.0041
vn 0.1637 0.9835 0.0772
vn -0.0382 0.9992 -0.0134
vn 0.1803 0.9826 0.0446
vn -0.0144 0.9985 0.0530
vn 0.1666 0.9860 0.0085
vn -0.0449 0.9942 0.0979
vn 0.1301 0.9898 -0.0579
vn -0.0056 0.9953 0.0967
vn 0.0534 0.9926 -0.1089
vn -0.0402 0.9930 0.1111
vn -0.0418 0.9902 -0.1332
vn -0.0360 0.9962 0.0790
vn -0.1036 0.9870 -0.1229
vn -0.0220 0.9942 0.1054
vn -0.1151 0.9849 -0.1295
vn 0.0323 0.9994 0.0130
vn -0.1024 0.9854 -0.1357
vn 0.1113 0.9930 -0.0382
vn 0.6700 0.3477 -0.6559
vn 0.9408 0.3388 0.0041
vn -0.0110 0.3571 -0.9340
vn -0.6570 0.3526 -0.6663
vn -0.9349 0.3547 -0.0129
vn -0.6754 0.3369 0.6560
vn 0.0099 0.3423 0.9395
vn 0.6829 0.3453 0.6438
vn 0.0173 -0.9998 0.0010
vn 0.0073 -0.9993 -0.0363
vn 0.0053 -0.9999 -0.0119
vn -0.0004 -1.0000 -0.0045
vn -0.0062 -0.9965 -0.0828
vn 0.0149 -0.9959 -0.0895
vn 0.0308 -0.9987 -0.0397
vn 0.0453 -0.9985 -0.0308
vn 0.0135 -0.9999 0.0024
vn 0.0470 -0.9964 -0.0709
vn 0.1007 -0.9781 -0.1824
vn 0.1310 -0.9713 -0.1984
vn 0.0546 -0.9858 -0.1587
vn 0.0926 -0.9874 -0.1279
vn 0.0095 -0.9978 -0.0652
vn 0.0328 -0.9978 -0.0580
vn 0.4980 0.7281 -0.4709
vn 0.6209 0.5145 -0.5914
vn 0.8700 0.4931 0.0017
vn 0.6984 0.7156 0.0074
vn 0.7000 0.2454 -0.6706
vn 0.9101 0.1851 -0.3709
vn 0.9763 0.2164 0.0007
vn -0.0269 0.7575 -0.6523
vn -0.0232 0.5631 -0.8260
vn -0.0735 0.3241 -0.9432
vn 0.3798 0.2413 -0.8930
vn -0.5034 0.7456 -0.4366
vn -0.5960 0.5842 -0.5509
vn -0.6603 0.4065 -0.6315
vn -0.4580 0.3470 -0.8184
vn -0.6649 0.7432 0.0747
vn -0.8157 0.5783 0.0176
vn -0.9187 0.3851 -0.0873
vn -0.8204 0.3757 -0.4310
vn -0.5139 0.6663 0.5403
vn -0.6176 0.5045 0.6034
vn -0.6816 0.3103 0.6627
vn -0.8798 0.3238 0.3480
vn -0.0852 0.6597 0.7467
vn -0.0285 0.4809 0.8763
vn 0.0218 0.2604 0.9653
vn -0.3709 0.2621 0.8909
vn 0.4747 0.6962 0.5385
vn 0.6162 0.4967 0.6113
vn 0.7052 0.2334 0.6695
vn 0.3909 0.2117 0.8958
vn 0.9105 0.1798 0.3724
vn 0.4811 0.8254 -0.2953
vn 0.5158 0.8483 -0.1193
vn 0.6304 0.6834 -0.3681
vn 0.6968 0.7066 -0.1230
vn 0.5529 0.6754 -0.4881
vn 0.4286 0.8305 -0.3558
vn 0.3578 0.8367 -0.4145
vn 0.4188 0.6992 -0.5795
vn 0.1054 0.7451 -0.6585
vn 0.1019 0.8824 -0.4593
vn -0.1701 0.8864 -0.4306
vn -0.2524 0.7513 -0.6098
vn -0.4806 0.7449 -0.4627
vn -0.3329 0.8895 -0.3130
vn -0.4367 0.8822 -0.1763
vn -0.6195 0.7440 -0.2504
vn -0.6680 0.7433 0.0372
vn -0.4616 0.8860 0.0452
vn -0.4323 0.8646 0.2562
vn -0.6031 0.7284 0.3250
vn -0.4547 0.7140 0.5324
vn -0.3153 0.8587 0.4041
vn -0.1958 0.8453 0.4972
vn -0.2601 0.7061 0.6586
vn -0.0297 0.7086 0.7050
vn -0.0303 0.8543 0.5189
vn 0.1522 0.8555 0.4950
vn 0.2303 0.7167 0.6583
vn 0.4940 0.7281 0.4752
vn 0.3490 0.8758 0.3335
vn 0.4966 0.8586 0.1270
vn 0.6658 0.7214 0.1903
# 210 vertex normals

vt 0.9349 0.5650 0.2870
vt 0.9768 0.5650 0.2950
vt 0.9738 0.6646 0.5000
vt 0.9349 0.6559 0.4604
vt 0.6651 0.5650 0.2950
vt 0.7051 0.5650 0.3132
vt 0.7016 0.6565 0.4635
vt 0.6621 0.6646 0.5000
vt 0.7427 0.5650 0.3305
vt 0.7404 0.6561 0.4655
vt 0.7790 0.5650 0.3374
vt 0.7790 0.6565 0.4663
vt 0.8153 0.5650 0.3305
vt 0.8177 0.6567 0.4655
vt 0.8529 0.5650 0.3132
vt 0.8565 0.6572 0.4635
vt 0.8929 0.5650 0.2950
vt 0.8955 0.6566 0.4614
vt 0.0839 0.0901 0.0000
vt 0.2046 0.0401 0.0000
vt 0.3252 0.0901 0.0000
vt 0.0339 0.2107 0.0000
vt 0.0839 0.3314 0.0000
vt 0.2046 0.3814 0.0000
vt 0.3252 0.3314 0.0000
vt 0.3752 0.2107 0.0000
vt 0.9349 0.6947 0.3946
vt 0.9742 0.6928 0.3946
vt 0.9583 0.8166 0.2518
vt 0.9213 0.8167 0.2505
vt 0.6621 0.7008 0.3946
vt 0.7011 0.7000 0.3946
vt 0.7167 0.8164 0.2628
vt 0.6811 0.8166 0.2518
vt 0.7401 0.6961 0.3946
vt 0.7508 0.8161 0.2737
vt 0.7790 0.7000 0.3946
vt 0.7838 0.8161 0.2797
vt 0.8180 0.7016 0.3946
vt 0.8167 0.8161 0.2778
vt 0.8569 0.7057 0.3946
vt 0.8501 0.8164 0.2689
vt 0.8959 0.7008 0.3946
vt 0.8849 0.8166 0.2575
vt 0.9212 0.8998 0.2237
vt 0.9607 0.8996 0.2263
vt 0.6822 0.8996 0.2263
vt 0.7188 0.8991 0.2482
vt 0.7525 0.8986 0.2702
vt 0.7841 0.8985 0.2821
vt 0.8153 0.8986 0.2783
vt 0.8478 0.8991 0.2606
vt 0.8829 0.8996 0.2378
vt 0.7394 0.2467 0.0000
vt 0.7276 0.2378 0.0000
vt 0.8311 0.1032 0.0000
vt 0.9009 0.1488 0.0000
vt 0.7158 0.2290 0.0000
vt 0.7559 0.0644 0.0000
vt 0.7680 0.0149 0.0000
vt 0.8595 0.0663 0.0000
vt 0.9510 0.1177 0.0000
vt 0.7011 0.2311 0.0000
vt 0.6712 0.0621 0.0000
vt 0.6865 0.2333 0.0000
vt 0.5884 0.0687 0.0000
vt 0.6631 0.0158 0.0000
vt 0.5582 0.0166 0.0000
vt 0.6776 0.2450 0.0000
vt 0.5350 0.1395 0.0000
vt 0.6687 0.2568 0.0000
vt 0.4890 0.2168 0.0000
vt 0.4336 0.2047 0.0000
vt 0.4959 0.1106 0.0000
vt 0.6708 0.2715 0.0000
vt 0.4969 0.3045 0.0000
vt 0.6729 0.2862 0.0000
vt 0.5138 0.3901 0.0000
vt 0.4492 0.3135 0.0000
vt 0.4648 0.4223 0.0000
vt 0.6848 0.2951 0.0000
vt 0.5784 0.4419 0.0000
vt 0.6966 0.3040 0.0000
vt 0.6487 0.4861 0.0000
vt 0.6338 0.5419 0.0000
vt 0.5493 0.4821 0.0000
vt 0.7113 0.3019 0.0000
vt 0.7357 0.4779 0.0000
vt 0.7259 0.2998 0.0000
vt 0.8216 0.4607 0.0000
vt 0.7424 0.5261 0.0000
vt 0.8511 0.5104 0.0000
vt 0.7348 0.2879 0.0000
vt 0.8779 0.3938 0.0000
vt 0.7436 0.2760 0.0000
vt 0.9266 0.3211 0.0000
vt 0.9171 0.4227 0.0000
vt 0.9831 0.3351 0.0000
vt 0.7415 0.2613 0.0000
vt 0.9186 0.2339 0.0000
vt 0.9670 0.2264 0.0000
vt 0.3642 0.6004 0.0000
vt 0.3094 0.5890 0.0000
vt 0.3377 0.5168 0.0000
vt 0.4058 0.5552 0.0000
vt 0.3813 0.6563 0.0000
vt 0.4506 0.6239 0.0000
vt 0.2644 0.7132 0.0000
vt 0.4210 0.7032 0.0000
vt 0.4853 0.6995 0.0000
vt 0.3991 0.7534 0.0000
vt 0.4799 0.7772 0.0000
vt 0.3915 0.8106 0.0000
vt 0.4441 0.8502 0.0000
vt 0.3319 0.8299 0.0000
vt 0.3729 0.8985 0.0000
vt 0.2844 0.8651 0.0000
vt 0.2939 0.9268 0.0000
vt 0.2308 0.8404 0.0000
vt 0.2129 0.9151 0.0000
vt 0.1763 0.8328 0.0000
vt 0.1420 0.8815 0.0000
vt 0.1570 0.7778 0.0000
vt 0.0962 0.8162 0.0000
vt 0.1246 0.7315 0.0000
vt 0.0694 0.7392 0.0000
vt 0.1475 0.6778 0.0000
vt 0.0808 0.6576 0.0000
vt 0.1575 0.6202 0.0000
vt 0.1156 0.5829 0.0000
vt 0.2107 0.5994 0.0000
vt 0.1810 0.5334 0.0000
vt 0.2595 0.5642 0.0000
vt 0.2589 0.5043 0.0000
vt 0.9740 0.6787 0.4473
vt 0.9349 0.6796 0.4473
vt 0.7011 0.6823 0.4473
vt 0.6621 0.6827 0.4473
vt 0.7401 0.6803 0.4473
vt 0.7790 0.6823 0.4473
vt 0.8180 0.6831 0.4473
vt 0.8569 0.6851 0.4473
vt 0.8959 0.6827 0.4473
vt 0.9503 0.9199 0.3597
vt 0.9150 0.9201 0.3578
vt 0.7234 0.9215 0.3810
vt 0.6896 0.9199 0.3597
vt 0.7554 0.9191 0.4032
vt 0.7861 0.9190 0.4158
vt 0.8164 0.9146 0.4124
vt 0.8475 0.9169 0.3946
vt 0.8804 0.9196 0.3718
vt 0.9457 0.9519 0.2906
vt 0.9124 0.9520 0.2960
vt 0.9411 0.9839 0.2215
vt 0.9253 0.9839 0.2280
vt 0.9095 0.9839 0.2346
vt 0.7231 0.9535 0.2976
vt 0.6895 0.9519 0.2906
vt 0.7227 0.9864 0.2129
vt 0.7061 0.9852 0.2172
vt 0.6895 0.9839 0.2215
vt 0.7560 0.9507 0.3094
vt 0.7566 0.9814 0.2146
vt 0.7397 0.9839 0.2137
vt 0.7877 0.9516 0.3207
vt 0.7895 0.9844 0.2253
vt 0.7731 0.9829 0.2199
vt 0.8184 0.9506 0.3250
vt 0.8205 0.9866 0.2382
vt 0.8050 0.9855 0.2318
vt 0.8488 0.9521 0.3197
vt 0.8502 0.9879 0.2459
vt 0.8353 0.9873 0.2421
vt 0.8800 0.9520 0.3076
vt 0.8795 0.9839 0.2445
vt 0.8649 0.9859 0.2452
vt 0.8945 0.9839 0.2395
vt 0.4270 0.5313 0.0000
vt 0.3510 0.4814 0.0000
vt 0.4380 0.5180 0.0000
vt 0.3660 0.4426 0.0000
vt 0.5099 0.5934 0.0000
vt 0.4836 0.6079 0.0000
vt 0.5182 0.6972 0.0000
vt 0.5354 0.6955 0.0000
vt 0.5608 0.7977 0.0000
vt 0.5183 0.7883 0.0000
vt 0.4711 0.8704 0.0000
vt 0.4853 0.8809 0.0000
vt 0.4097 0.9641 0.0000
vt 0.3925 0.9313 0.0000
vt 0.2985 0.9588 0.0000
vt 0.3008 0.9758 0.0000
vt 0.1919 0.9875 0.0000
vt 0.2039 0.9511 0.0000
vt 0.1236 0.9068 0.0000
vt 0.1131 0.9204 0.0000
vt 0.0344 0.8532 0.0000
vt 0.0660 0.8345 0.0000
vt 0.0397 0.7429 0.0000
vt 0.0229 0.7445 0.0000
vt 0.0114 0.6357 0.0000
vt 0.0477 0.6472 0.0000
vt 0.0929 0.5626 0.0000
vt 0.0800 0.5508 0.0000
vt 0.1486 0.4658 0.0000
vt 0.1661 0.5005 0.0000
vt 0.2581 0.4723 0.0000
vt 0.2573 0.4542 0.0000
# 210 texture coords

g amanita_A
usemtl amanita
s 1
f -161/-210/-210 -160/-209/-209 -128/-208/-208 -127/-207/-207 
f -160/-206/-209 -159/-205/-206 -126/-204/-205 -128/-203/-208 
f -159/-205/-206 -158/-202/-204 -125/-201/-203 -126/-204/-205 
f -158/-202/-204 -157/-200/-202 -124/-199/-201 -125/-201/-203 
f -157/-200/-202 -156/-198/-200 -123/-197/-199 -124/-199/-201 
f -156/-198/-200 -155/-196/-198 -122/-195/-197 -123/-197/-199 
f -155/-196/-198 -154/-194/-196 -121/-193/-195 -122/-195/-197 
f -154/-194/-196 -161/-210/-210 -127/-207/-207 -121/-193/-195 
s 2
f -158/-192/-194 -159/-191/-194 -160/-190/-194 -157/-189/-194 
f -156/-188/-194 -157/-189/-194 -160/-190/-194 -155/-187/-194 
f -154/-186/-194 -155/-187/-194 -160/-190/-194 -161/-185/-194 
s 3
f -153/-184/-193 -152/-183/-192 -70/-182/-191 -71/-181/-190 
f -152/-180/-192 -151/-179/-189 -69/-178/-188 -70/-177/-191 
f -151/-179/-189 -150/-176/-187 -68/-175/-186 -69/-178/-188 
f -150/-176/-187 -149/-174/-185 -67/-173/-184 -68/-175/-186 
f -149/-174/-185 -148/-172/-183 -66/-171/-182 -67/-173/-184 
f -148/-172/-183 -147/-170/-181 -65/-169/-180 -66/-171/-182 
f -146/-168/-179 -64/-167/-178 -65/-169/-180 -147/-170/-181 
f -146/-168/-179 -153/-184/-193 -71/-181/-190 -64/-167/-178 
s 1
f -120/-166/-177 -71/-181/-190 -70/-182/-191 -119/-165/-176 
f -119/-164/-176 -70/-177/-191 -69/-178/-188 -118/-163/-175 
f -118/-163/-175 -69/-178/-188 -68/-175/-186 -117/-162/-174 
f -117/-162/-174 -68/-175/-186 -67/-173/-184 -116/-161/-173 
f -116/-161/-173 -67/-173/-184 -66/-171/-182 -115/-160/-172 
f -115/-160/-172 -66/-171/-182 -65/-169/-180 -114/-159/-171 
f -114/-159/-171 -65/-169/-180 -64/-167/-178 -113/-158/-170 
f -113/-158/-170 -64/-167/-178 -71/-181/-190 -120/-166/-177 
s 2
f -145/-157/-169 -79/-156/-168 -16/-155/-167 -14/-154/-166 
f -79/-156/-168 -144/-153/-165 -15/-152/-164 -16/-155/-167 
f -136/-151/-163 -24/-150/-162 -16/-155/-167 -15/-152/-164 
f -24/-150/-162 -137/-149/-161 -14/-154/-166 -16/-155/-167 
f -144/-153/-165 -78/-148/-160 -13/-147/-159 -15/-152/-164 
f -78/-148/-160 -143/-146/-158 -12/-145/-157 -13/-147/-159 
f -23/-144/-156 -13/-147/-159 -12/-145/-157 -135/-143/-155 
f -136/-151/-163 -15/-152/-164 -13/-147/-159 -23/-144/-156 
f -143/-146/-158 -77/-142/-154 -11/-141/-153 -12/-145/-157 
f -77/-142/-154 -142/-140/-152 -10/-139/-151 -11/-141/-153 
f -134/-138/-150 -22/-137/-149 -11/-141/-153 -10/-139/-151 
f -22/-137/-149 -135/-143/-155 -12/-145/-157 -11/-141/-153 
f -142/-140/-152 -76/-136/-148 -9/-135/-147 -10/-139/-151 
f -76/-136/-148 -141/-134/-146 -8/-133/-145 -9/-135/-147 
f -21/-132/-144 -9/-135/-147 -8/-133/-145 -133/-131/-143 
f -134/-138/-150 -10/-139/-151 -9/-135/-147 -21/-132/-144 
f -141/-134/-146 -75/-130/-142 -7/-129/-141 -8/-133/-145 
f -75/-130/-142 -140/-128/-140 -6/-127/-139 -7/-129/-141 
f -132/-126/-138 -20/-125/-137 -7/-129/-141 -6/-127/-139 
f -20/-125/-137 -133/-131/-143 -8/-133/-145 -7/-129/-141 
f -140/-128/-140 -74/-124/-136 -5/-123/-135 -6/-127/-139 
f -74/-124/-136 -139/-122/-134 -4/-121/-133 -5/-123/-135 
f -19/-120/-132 -5/-123/-135 -4/-121/-133 -131/-119/-131 
f -19/-120/-132 -132/-126/-138 -6/-127/-139 -5/-123/-135 
f -139/-122/-134 -73/-118/-130 -3/-117/-129 -4/-121/-133 
f -73/-118/-130 -138/-116/-128 -2/-115/-127 -3/-117/-129 
f -18/-114/-126 -3/-117/-129 -2/-115/-127 -130/-113/-125 
f -131/-119/-131 -4/-121/-133 -3/-117/-129 -18/-114/-126 
f -138/-116/-128 -72/-112/-124 -1/-111/-123 -2/-115/-127 
f -72/-112/-124 -145/-157/-169 -14/-154/-166 -1/-111/-123 
f -137/-149/-161 -17/-110/-122 -1/-111/-123 -14/-154/-166 
f -17/-110/-122 -130/-113/-125 -2/-115/-127 -1/-111/-123 
s 1
f -96/-109/-121 -55/-108/-120 -104/-107/-119 -63/-106/-118 
f -54/-105/-117 -96/-109/-121 -63/-106/-118 -103/-104/-116 
f -96/-109/-121 -54/-105/-117 -129/-103/-115 -55/-108/-120 
f -95/-102/-114 -54/-105/-117 -103/-104/-116 -62/-101/-113 
f -53/-100/-112 -95/-102/-114 -62/-101/-113 -102/-99/-111 
f -95/-102/-114 -53/-100/-112 -129/-103/-115 -54/-105/-117 
f -94/-98/-110 -53/-100/-112 -102/-99/-111 -61/-97/-109 
f -52/-96/-108 -94/-98/-110 -61/-97/-109 -101/-95/-107 
f -94/-98/-110 -52/-96/-108 -129/-103/-115 -53/-100/-112 
f -93/-94/-106 -52/-96/-108 -101/-95/-107 -60/-93/-105 
f -51/-92/-104 -93/-94/-106 -60/-93/-105 -100/-91/-103 
f -93/-94/-106 -51/-92/-104 -129/-103/-115 -52/-96/-108 
f -92/-90/-102 -51/-92/-104 -100/-91/-103 -59/-89/-101 
f -50/-88/-100 -92/-90/-102 -59/-89/-101 -99/-87/-99 
f -92/-90/-102 -50/-88/-100 -129/-103/-115 -51/-92/-104 
f -91/-86/-98 -50/-88/-100 -99/-87/-99 -58/-85/-97 
f -49/-84/-96 -91/-86/-98 -58/-85/-97 -98/-83/-95 
f -91/-86/-98 -49/-84/-96 -129/-103/-115 -50/-88/-100 
f -90/-82/-94 -49/-84/-96 -98/-83/-95 -57/-81/-93 
f -48/-80/-92 -90/-82/-94 -57/-81/-93 -97/-79/-91 
f -90/-82/-94 -48/-80/-92 -129/-103/-115 -49/-84/-96 
f -89/-78/-90 -48/-80/-92 -97/-79/-91 -56/-77/-89 
f -55/-108/-120 -89/-78/-90 -56/-77/-89 -104/-107/-119 
f -89/-78/-90 -55/-108/-120 -129/-103/-115 -48/-80/-92 
f -128/-208/-208 -47/-76/-88 -80/-75/-87 -127/-207/-207 
f -152/-183/-192 -153/-184/-193 -80/-75/-87 -47/-76/-88 
f -126/-204/-205 -46/-74/-86 -47/-73/-88 -128/-203/-208 
f -151/-179/-189 -152/-180/-192 -47/-73/-88 -46/-74/-86 
f -125/-201/-203 -45/-72/-85 -46/-74/-86 -126/-204/-205 
f -150/-176/-187 -151/-179/-189 -46/-74/-86 -45/-72/-85 
f -124/-199/-201 -44/-71/-84 -45/-72/-85 -125/-201/-203 
f -149/-174/-185 -150/-176/-187 -45/-72/-85 -44/-71/-84 
f -123/-197/-199 -43/-70/-83 -44/-71/-84 -124/-199/-201 
f -148/-172/-183 -149/-174/-185 -44/-71/-84 -43/-70/-83 
f -122/-195/-197 -42/-69/-82 -43/-70/-83 -123/-197/-199 
f -147/-170/-181 -148/-172/-183 -43/-70/-83 -42/-69/-82 
f -121/-193/-195 -41/-68/-81 -42/-69/-82 -122/-195/-197 
f -146/-168/-179 -147/-170/-181 -42/-69/-82 -41/-68/-81 
f -127/-207/-207 -80/-75/-87 -41/-68/-81 -121/-193/-195 
f -153/-184/-193 -146/-168/-179 -41/-68/-81 -80/-75/-87 
s 2
f -119/-165/-80 -111/-67/-79 -112/-66/-78 -120/-166/-77 
f -118/-163/-76 -110/-65/-75 -111/-64/-79 -119/-164/-80 
f -117/-162/-74 -109/-63/-73 -110/-65/-75 -118/-163/-76 
f -116/-161/-72 -108/-62/-71 -109/-63/-73 -117/-162/-74 
f -115/-160/-70 -107/-61/-69 -108/-62/-71 -116/-161/-72 
f -114/-159/-68 -106/-60/-67 -107/-61/-69 -115/-160/-70 
f -113/-158/-66 -105/-59/-65 -106/-60/-67 -114/-159/-68 
f -120/-166/-77 -112/-66/-78 -105/-59/-65 -113/-158/-66 
s 1
f -111/-67/-64 -39/-58/-63 -40/-57/-62 -112/-66/-61 
f -39/-58/-63 -144/-56/-60 -79/-55/-59 -40/-57/-62 
f -79/-55/-59 -145/-54/-58 -40/-57/-62 
f -110/-65/-57 -38/-53/-56 -39/-52/-63 -111/-64/-64 
f -38/-53/-56 -143/-51/-55 -78/-50/-54 -39/-52/-63 
f -78/-50/-54 -144/-49/-60 -39/-52/-63 
f -109/-63/-53 -37/-48/-52 -38/-53/-56 -110/-65/-57 
f -37/-48/-52 -142/-47/-51 -77/-46/-50 -38/-53/-56 
f -77/-46/-50 -143/-51/-55 -38/-53/-56 
f -108/-62/-49 -36/-45/-48 -37/-48/-52 -109/-63/-53 
f -36/-45/-48 -141/-44/-47 -76/-43/-46 -37/-48/-52 
f -76/-43/-46 -142/-47/-51 -37/-48/-52 
f -107/-61/-45 -35/-42/-44 -36/-45/-48 -108/-62/-49 
f -35/-42/-44 -140/-41/-43 -75/-40/-42 -36/-45/-48 
f -75/-40/-42 -141/-44/-47 -36/-45/-48 
f -106/-60/-41 -34/-39/-40 -35/-42/-44 -107/-61/-45 
f -34/-39/-40 -139/-38/-39 -74/-37/-38 -35/-42/-44 
f -74/-37/-38 -140/-41/-43 -35/-42/-44 
f -105/-59/-37 -33/-36/-36 -34/-39/-40 -106/-60/-41 
f -33/-36/-36 -138/-35/-35 -73/-34/-34 -34/-39/-40 
f -73/-34/-34 -139/-38/-39 -34/-39/-40 
f -112/-66/-61 -40/-57/-62 -33/-36/-36 -105/-59/-37 
f -40/-57/-62 -145/-54/-58 -72/-33/-33 -33/-36/-36 
f -72/-33/-33 -138/-35/-35 -33/-36/-36 
f -88/-32/-32 -63/-106/-118 -104/-107/-119 -32/-31/-31 
f -24/-30/-30 -88/-32/-32 -32/-31/-31 -137/-29/-29 
f -88/-32/-32 -24/-30/-30 -136/-28/-28 -31/-27/-27 
f -63/-106/-118 -88/-32/-32 -31/-27/-27 -103/-104/-116 
f -87/-26/-26 -62/-101/-113 -103/-104/-116 -31/-27/-27 
f -23/-25/-25 -87/-26/-26 -31/-27/-27 -136/-28/-28 
f -87/-26/-26 -23/-25/-25 -135/-24/-24 -30/-23/-23 
f -62/-101/-113 -87/-26/-26 -30/-23/-23 -102/-99/-111 
f -86/-22/-22 -61/-97/-109 -102/-99/-111 -30/-23/-23 
f -22/-21/-21 -86/-22/-22 -30/-23/-23 -135/-24/-24 
f -86/-22/-22 -22/-21/-21 -134/-20/-20 -29/-19/-19 
f -61/-97/-109 -86/-22/-22 -29/-19/-19 -101/-95/-107 
f -85/-18/-18 -60/-93/-105 -101/-95/-107 -29/-19/-19 
f -21/-17/-17 -85/-18/-18 -29/-19/-19 -134/-20/-20 
f -85/-18/-18 -21/-17/-17 -133/-16/-16 -28/-15/-15 
f -60/-93/-105 -85/-18/-18 -28/-15/-15 -100/-91/-103 
f -84/-14/-14 -59/-89/-101 -100/-91/-103 -28/-15/-15 
f -20/-13/-13 -84/-14/-14 -28/-15/-15 -133/-16/-16 
f -84/-14/-14 -20/-13/-13 -132/-12/-12 -27/-11/-11 
f -59/-89/-101 -84/-14/-14 -27/-11/-11 -99/-87/-99 
f -83/-10/-10 -58/-85/-97 -99/-87/-99 -27/-11/-11 
f -19/-9/-9 -83/-10/-10 -27/-11/-11 -132/-12/-12 
f -83/-10/-10 -19/-9/-9 -131/-8/-8 -26/-7/-7 
f -58/-85/-97 -83/-10/-10 -26/-7/-7 -98/-83/-95 
f -82/-6/-6 -57/-81/-93 -98/-83/-95 -26/-7/-7 
f -18/-5/-5 -82/-6/-6 -26/-7/-7 -131/-8/-8 
f -82/-6/-6 -18/-5/-5 -130/-4/-4 -25/-3/-3 
f -57/-81/-93 -82/-6/-6 -25/-3/-3 -97/-79/-91 
f -81/-2/-2 -56/-77/-89 -97/-79/-91 -25/-3/-3 
f -17/-1/-1 -81/-2/-2 -25/-3/-3 -130/-4/-4 
f -81/-2/-2 -17/-1/-1 -137/-29/-29 -32/-31/-31 
f -56/-77/-89 -81/-2/-2 -32/-31/-31 -104/-107/-119 
# 155 polygons - 8 triangles

